<svg width="18" height="18" viewBox="0 0 18 18" fill="none" xmlns="http://www.w3.org/2000/svg">
<path d="M8.83333 17.1667C7.68056 17.1667 6.59722 16.9479 5.58333 16.5104C4.56944 16.0729 3.6875 15.4792 2.9375 14.7292C2.1875 13.9792 1.59375 13.0972 1.15625 12.0833C0.71875 11.0694 0.5 9.98611 0.5 8.83333C0.5 7.68056 0.71875 6.59722 1.15625 5.58333C1.59375 4.56944 2.1875 3.6875 2.9375 2.9375C3.6875 2.1875 4.56944 1.59375 5.58333 1.15625C6.59722 0.71875 7.68056 0.5 8.83333 0.5C9.98611 0.5 11.0694 0.71875 12.0833 1.15625C13.0972 1.59375 13.9792 2.1875 14.7292 2.9375C15.4792 3.6875 16.0729 4.56944 16.5104 5.58333C16.9479 6.59722 17.1667 7.68056 17.1667 8.83333V10.0417C17.1667 10.8611 16.8854 11.559 16.3229 12.1354C15.7604 12.7118 15.0694 13 14.25 13C13.7639 13 13.3056 12.8958 12.875 12.6875C12.4444 12.4792 12.0833 12.1806 11.7917 11.7917C11.3889 12.1944 10.934 12.4965 10.4271 12.6979C9.92014 12.8993 9.38889 13 8.83333 13C7.68056 13 6.69792 12.5938 5.88542 11.7812C5.07292 10.9688 4.66667 9.98611 4.66667 8.83333C4.66667 7.68056 5.07292 6.69792 5.88542 5.88542C6.69792 5.07292 7.68056 4.66667 8.83333 4.66667C9.98611 4.66667 10.9688 5.07292 11.7812 5.88542C12.5938 6.69792 13 7.68056 13 8.83333V10.0417C13 10.4028 13.1181 10.7083 13.3542 10.9583C13.5903 11.2083 13.8889 11.3333 14.25 11.3333C14.6111 11.3333 14.9097 11.2083 15.1458 10.9583C15.3819 10.7083 15.5 10.4028 15.5 10.0417V8.83333C15.5 6.97222 14.8542 5.39583 13.5625 4.10417C12.2708 2.8125 10.6944 2.16667 8.83333 2.16667C6.97222 2.16667 5.39583 2.8125 4.10417 4.10417C2.8125 5.39583 2.16667 6.97222 2.16667 8.83333C2.16667 10.6944 2.8125 12.2708 4.10417 13.5625C5.39583 14.8542 6.97222 15.5 8.83333 15.5H13V17.1667H8.83333ZM8.83333 11.3333C9.52778 11.3333 10.1181 11.0903 10.6042 10.6042C11.0903 10.1181 11.3333 9.52778 11.3333 8.83333C11.3333 8.13889 11.0903 7.54861 10.6042 7.0625C10.1181 6.57639 9.52778 6.33333 8.83333 6.33333C8.13889 6.33333 7.54861 6.57639 7.0625 7.0625C6.57639 7.54861 6.33333 8.13889 6.33333 8.83333C6.33333 9.52778 6.57639 10.1181 7.0625 10.6042C7.54861 11.0903 8.13889 11.3333 8.83333 11.3333Z" fill="#8B909F" stroke="black" stroke-linejoin="bevel"/>
</svg>
